<svg width="1100" height="1100" viewBox="0 0 1100 1100" fill="none" xmlns="http://www.w3.org/2000/svg">
<path fill-rule="evenodd" clip-rule="evenodd" d="M266.427 831.999C251.749 817.178 238.042 801.013 225.484 783.533C96.5873 604.122 137.538 354.188 316.949 225.291C496.361 96.3944 746.295 137.345 875.191 316.757C1004.09 496.168 963.138 746.102 783.726 874.999C699.664 935.393 600.119 958.499 504.796 947.547L568.471 1099.83L264.88 833.111L266.427 831.999ZM413.27 728.65L412.579 726.998L411.831 727.535C395.36 714.663 380.421 699.26 367.608 681.426C295.103 580.507 318.138 439.919 419.057 367.415C519.976 294.91 660.563 317.945 733.068 418.864C805.572 519.783 782.538 660.371 681.619 732.875C599.052 792.194 489.933 787.563 413.27 728.65Z" fill="#FF7F00"/>
</svg>
