<svg width="941" height="318" viewBox="0 0 941 318" fill="none" xmlns="http://www.w3.org/2000/svg">
<path fill-rule="evenodd" clip-rule="evenodd" d="M862.287 307.959C848.885 313.509 834.193 316.571 818.786 316.571C755.944 316.571 705 265.628 705 202.786C705 139.944 755.944 89 818.786 89C881.628 89 932.571 139.944 932.571 202.786C932.571 232.976 920.814 260.419 901.628 280.788L940.785 289.831L862.287 307.959ZM828.778 266.014C825.521 266.524 822.184 266.789 818.785 266.789C783.436 266.789 754.78 238.133 754.78 202.785C754.78 167.436 783.436 138.78 818.785 138.78C854.133 138.78 882.789 167.436 882.789 202.785C882.789 233.043 861.792 258.397 833.574 265.072L828.778 263.964V266.014Z" fill="#FF7F00"/>
<path d="M143.6 156.8H108.4V316H29.6V156.8H5.2V91.6H29.6V89.6C29.6 60.8 38 38.8 54.8 23.6C71.8667 8.13332 96.2667 0.399986 128 0.399986C134.4 0.399986 139.333 0.533318 142.8 0.799981V67.6C140.667 67.3333 137.733 67.2 134 67.2C125.467 67.2 119.2 69.2 115.2 73.2C111.2 76.9333 108.933 83.0666 108.4 91.6H143.6V156.8ZM401.219 91.6V316H322.419V284C315.752 294.133 306.552 302.4 294.819 308.8C283.085 314.933 269.619 318 254.419 318C228.285 318 207.619 309.467 192.419 292.4C177.485 275.067 170.019 251.6 170.019 222V91.6H248.019V212C248.019 224.8 251.352 234.933 258.019 242.4C264.952 249.6 274.019 253.2 285.219 253.2C296.685 253.2 305.752 249.6 312.419 242.4C319.085 234.933 322.419 224.8 322.419 212V91.6H401.219ZM592.638 89.6C618.504 89.6 639.038 98.2666 654.238 115.6C669.438 132.667 677.038 155.867 677.038 185.2V316H598.638V195.6C598.638 182.8 595.304 172.8 588.638 165.6C581.971 158.133 573.038 154.4 561.838 154.4C550.104 154.4 540.904 158.133 534.238 165.6C527.571 172.8 524.238 182.8 524.238 195.6V316H445.838V91.6H524.238V123.6C531.171 113.467 540.504 105.333 552.238 99.2C563.971 92.8 577.438 89.6 592.638 89.6Z" fill="#FF7F00"/>
</svg>
